<mxfile host="65bd71144e">
    <diagram id="elu4WuW37RmkAwTXsSW-" name="Page-1">
        <mxGraphModel dx="1888" dy="524" grid="1" gridSize="10" guides="1" tooltips="1" connect="1" arrows="1" fold="1" page="1" pageScale="1" pageWidth="850" pageHeight="1100" math="0" shadow="0">
            <root>
                <mxCell id="0"/>
                <mxCell id="1" parent="0"/>
                <mxCell id="3" value="" style="group" parent="1" vertex="1" connectable="0">
                    <mxGeometry x="-10" y="510" width="730" height="280" as="geometry"/>
                </mxCell>
                <mxCell id="4" style="edgeStyle=none;html=1;fontSize=16;" parent="3" source="5" edge="1">
                    <mxGeometry relative="1" as="geometry">
                        <mxPoint x="300" y="220" as="targetPoint"/>
                    </mxGeometry>
                </mxCell>
                <mxCell id="5" value="Actor" style="shape=umlActor;verticalLabelPosition=bottom;verticalAlign=top;html=1;outlineConnect=0;" parent="3" vertex="1">
                    <mxGeometry x="140" y="190" width="30" height="60" as="geometry"/>
                </mxCell>
                <mxCell id="6" value="&lt;b&gt;&lt;font style=&quot;font-size: 18px&quot;&gt;Form&lt;/font&gt;&lt;/b&gt;" style="rounded=0;whiteSpace=wrap;html=1;fontSize=16;" parent="3" vertex="1">
                    <mxGeometry x="315" y="190" width="120" height="60" as="geometry"/>
                </mxCell>
                <mxCell id="7" style="edgeStyle=none;html=1;fontSize=16;" parent="3" edge="1">
                    <mxGeometry relative="1" as="geometry">
                        <mxPoint x="590" y="219.5" as="targetPoint"/>
                        <mxPoint x="460" y="219.5" as="sourcePoint"/>
                    </mxGeometry>
                </mxCell>
                <mxCell id="8" value="&lt;b&gt;&lt;font style=&quot;font-size: 18px&quot;&gt;Server&lt;/font&gt;&lt;/b&gt;" style="rounded=0;whiteSpace=wrap;html=1;fontSize=16;" parent="3" vertex="1">
                    <mxGeometry x="610" y="190" width="120" height="60" as="geometry"/>
                </mxCell>
                <mxCell id="9" value="Request With letter &lt;span style=&quot;font-size: 20px&quot;&gt;b&lt;/span&gt;" style="text;html=1;strokeColor=none;fillColor=none;align=center;verticalAlign=middle;whiteSpace=wrap;rounded=0;" parent="3" vertex="1">
                    <mxGeometry x="460" y="130" width="140" height="30" as="geometry"/>
                </mxCell>
                <mxCell id="10" value="Request&amp;nbsp; With letter &lt;span style=&quot;font-size: 20px&quot;&gt;&lt;b&gt;e&lt;/b&gt;&lt;/span&gt;" style="text;html=1;strokeColor=none;fillColor=none;align=center;verticalAlign=middle;whiteSpace=wrap;rounded=0;" parent="3" vertex="1">
                    <mxGeometry x="460" y="180" width="140" height="30" as="geometry"/>
                </mxCell>
                <mxCell id="11" value="Request&amp;nbsp; With letter &lt;span style=&quot;font-size: 20px&quot;&gt;&lt;b&gt;d&lt;/b&gt;&lt;/span&gt;" style="text;html=1;strokeColor=none;fillColor=none;align=center;verticalAlign=middle;whiteSpace=wrap;rounded=0;" parent="3" vertex="1">
                    <mxGeometry x="460" y="250" width="140" height="30" as="geometry"/>
                </mxCell>
                <mxCell id="13" value="writing &lt;b&gt;&lt;font style=&quot;font-size: 20px&quot;&gt;b&lt;/font&gt;&lt;font style=&quot;font-size: 15px&quot;&gt; &lt;/font&gt;&lt;/b&gt;letter" style="text;html=1;strokeColor=none;fillColor=none;align=center;verticalAlign=middle;whiteSpace=wrap;rounded=0;" parent="3" vertex="1">
                    <mxGeometry x="161.25" y="120" width="140" height="30" as="geometry"/>
                </mxCell>
                <mxCell id="14" value="writing &lt;b&gt;&lt;font style=&quot;font-size: 20px&quot;&gt;e&lt;/font&gt;&lt;font style=&quot;font-size: 15px&quot;&gt;&amp;nbsp;&lt;/font&gt;&lt;/b&gt;letter" style="text;html=1;strokeColor=none;fillColor=none;align=center;verticalAlign=middle;whiteSpace=wrap;rounded=0;" parent="3" vertex="1">
                    <mxGeometry x="161.25" y="160" width="140" height="30" as="geometry"/>
                </mxCell>
                <mxCell id="15" value="writing &lt;b&gt;&lt;font style=&quot;font-size: 20px&quot;&gt;d&lt;/font&gt;&lt;font style=&quot;font-size: 15px&quot;&gt;&amp;nbsp;&lt;/font&gt;&lt;/b&gt;letter" style="text;html=1;strokeColor=none;fillColor=none;align=center;verticalAlign=middle;whiteSpace=wrap;rounded=0;" parent="3" vertex="1">
                    <mxGeometry x="161.25" y="250" width="140" height="30" as="geometry"/>
                </mxCell>
                <mxCell id="16" value="Intend to search for&amp;nbsp;&lt;b&gt;&lt;font style=&quot;font-size: 19px&quot;&gt;BED&lt;/font&gt;&lt;/b&gt;" style="ellipse;whiteSpace=wrap;html=1;fontSize=15;fontColor=#FFFFFF;fillColor=none;" parent="3" vertex="1">
                    <mxGeometry x="-20" y="90" width="140" height="100" as="geometry"/>
                </mxCell>
                <mxCell id="17" value="" style="endArrow=none;dashed=1;html=1;fontSize=15;fontColor=#FFFFFF;exitX=0.778;exitY=0.91;exitDx=0;exitDy=0;exitPerimeter=0;entryX=0.25;entryY=0.1;entryDx=0;entryDy=0;entryPerimeter=0;" parent="3" source="16" target="5" edge="1">
                    <mxGeometry width="50" height="50" relative="1" as="geometry">
                        <mxPoint x="270" y="350" as="sourcePoint"/>
                        <mxPoint x="320" y="300" as="targetPoint"/>
                    </mxGeometry>
                </mxCell>
            </root>
        </mxGraphModel>
    </diagram>
</mxfile>